<svg id="a70b03b4-1616-4f52-8a6e-f83deff35754" data-name="Layer 1" xmlns="http://www.w3.org/2000/svg" viewBox="0 0 200 200"><title>Artboard 1</title><path d="M127.74,141.83h-1.33v3.51h1.3c1.31,0,1.94-.45,1.94-1.75S129,141.83,127.74,141.83Z" style="fill:#fff"/><path d="M100.81,162.22C99,162.22,98,163.52,98,166s1,3.77,2.81,3.77,2.84-1.36,2.84-3.77S102.69,162.22,100.81,162.22Z" style="fill:#fff"/><path d="M33.72,141.76c-1.56,0-2.37,1.11-2.37,3.28s.81,3.23,2.37,3.23,2.4-1.17,2.4-3.23S35.3,141.76,33.72,141.76Z" style="fill:#fff"/><path d="M140.48,142h-.12a14.65,14.65,0,0,1-.81,2.93l-.61,1.57h2.91l-.58-1.57A12.46,12.46,0,0,1,140.48,142Z" style="fill:#fff"/><path d="M96.51,142h-.12a14.65,14.65,0,0,1-.81,2.93L95,146.49h2.91l-.58-1.57A12.46,12.46,0,0,1,96.51,142Z" style="fill:#fff"/><path d="M72.89,70.09a188.41,188.41,0,0,1-7.65-27.28h-.67a252.64,252.64,0,0,1-8,27.12L51.43,84.74H78Z" style="fill:#fff"/><path d="M0,0V200H200V0ZM52.59,26H77.88l35.59,98H91.85l-8-22.63H45.78L38.12,124H17ZM17,139.29h8.2v2.59H20.14v2.47h4.33V147H20.14v3.75H17ZM22.64,170a2.67,2.67,0,0,0,2.76-1.95l3,1.86c-1.19,2.16-2.92,3.08-5.9,3.08-3.85,0-6.5-2.3-6.5-7s2.54-7,6.81-7c2.86,0,4.6,1.14,5.59,3.55l-3.22,1.66c-.39-1.27-1-2.24-2.62-2.24s-2.81,1.27-2.81,4C19.75,168.56,20.79,170,22.64,170Zm13.83,2.66H32.75V159.33h3.72ZM33.72,151c-3.52,0-5.66-2.14-5.66-6s2.14-6,5.66-6,5.68,2.14,5.68,6S37.26,151,33.72,151Zm18.93,11.35H48.4v10.32H44.68V162.35H40.52v-3H52.65Zm-2.49-11.64a2.86,2.86,0,0,1-.7-1.25l-.32-1.05c-.28-.86-.61-1.24-1.61-1.24H46.39v3.54H43.25V139.29h5c3.07,0,4.56,1.25,4.56,3.7a2.85,2.85,0,0,1-2.93,3v.07a2.35,2.35,0,0,1,2.28,1.57l.63,1.71a3.64,3.64,0,0,0,.79,1.37Zm13.29,17.66v4.3H59.7v-4.3l-5.21-9h4.25l1.82,3.47a7.8,7.8,0,0,1,1,2.83h.11a7.74,7.74,0,0,1,1-2.8l1.74-3.5h4ZM68,148.43a2.24,2.24,0,0,0,2.33-1.66l2.54,1.59c-1,1.86-2.47,2.64-5,2.64-3.26,0-5.5-2-5.5-6s2.15-6,5.75-6a4.54,4.54,0,0,1,4.73,3l-2.72,1.43c-.33-1.09-.84-1.93-2.22-1.93s-2.37,1.1-2.37,3.45S66.46,148.43,68,148.43Zm8.32-9.14h3.14v4.46h4.36v-4.46H87v11.42H83.84v-4.3H79.48v4.3H76.34ZM85.08,170a2.65,2.65,0,0,0,2.75-1.95l3,1.86c-1.19,2.16-2.92,3.08-5.9,3.08-3.86,0-6.5-2.3-6.5-7s2.53-7,6.8-7c2.87,0,4.61,1.14,5.6,3.55l-3.23,1.66c-.38-1.27-1-2.24-2.61-2.24s-2.81,1.27-2.81,4C82.19,168.56,83.23,170,85.08,170Zm8.31-19.3H90.08l4.61-11.42h3.73l4.42,11.42h-3.4l-.72-1.94H94.11ZM100.81,173c-4.16,0-6.69-2.5-6.69-7s2.53-7,6.69-7,6.73,2.49,6.73,7S105,173,100.81,173Zm9.25-26.85a11.54,11.54,0,0,1-1-2.25h-.1a16.29,16.29,0,0,1,.12,2.11v4.7h-3.14V139.29h3.4l1.88,3.61a12.7,12.7,0,0,1,1,2.25h.09a13.76,13.76,0,0,1,1-2.25l1.89-3.61h3.37v11.42h-3.12V146a19.5,19.5,0,0,1,.1-2.11h-.1a12.15,12.15,0,0,1-1,2.25l-1.42,2.5h-1.51Zm14.51,21.3c0,4.22-2.82,5.55-6.4,5.55s-6.39-1.33-6.39-5.55v-8.12h3.72v7.18c0,2.14.47,3.44,2.67,3.44s2.68-1.3,2.68-3.44v-7.18h3.72Zm1.84-19.56v2.82h-3.14V139.29h4.58c3.31,0,4.92,1.3,4.92,4.32,0,2.83-1.7,4.28-4.66,4.28Zm16.84,24.78h-3.42l-4.71-5.91a14.27,14.27,0,0,1-1.57-2.41h-.11a36.73,36.73,0,0,1,.16,3.74v4.58h-3.72V159.33h4l4.3,5.57a11.61,11.61,0,0,1,1.38,2.17h.11s-.11-1.47-.11-3.55v-4.19h3.72Zm.16-22-.72-1.94h-4.61l-.72,1.94h-3.31l4.61-11.42h3.73l4.42,11.42ZM115.13,107l15.14-13c4.32,10.32,9,15.31,17.46,15.31,10.32,0,13.14-6.32,13.14-17.64V26H181V95.55C181,118,165.86,126,147.9,126,131.93,126,121.29,119.18,115.13,107ZM153,139.29v11.42h-3.14V139.29ZM154.71,170a2.65,2.65,0,0,0,2.75-1.95l3,1.86c-1.19,2.16-2.92,3.08-5.9,3.08-3.86,0-6.5-2.3-6.5-7s2.53-7,6.8-7c2.87,0,4.61,1.14,5.6,3.55l-3.23,1.66c-.38-1.27-1-2.24-2.61-2.24s-2.81,1.27-2.81,4C151.82,168.56,152.86,170,154.71,170Zm7.17-19c-2.87,0-5-2.07-5-5.94s2.19-6.06,5.66-6.06a4.64,4.64,0,0,1,4.82,3l-2.72,1.45c-.38-1.38-1.15-1.93-2.17-1.93S160,142.16,160,145c0,2.09.84,3.51,2.49,3.51a1.84,1.84,0,0,0,2-1.71h-2v-2.16h4.77v6.08h-2l-.49-1.4A2.91,2.91,0,0,1,161.88,151Zm6.66,21.67h-3.72V159.33h3.72Zm3.17-33.38h3.35l3.63,4.77a9.66,9.66,0,0,1,1.17,1.86H180s-.09-1.26-.09-3v-3.58H183v11.42h-2.89l-4-5.06a12.6,12.6,0,0,1-1.33-2.06h-.09a30.82,30.82,0,0,1,.14,3.2v3.92h-3.14ZM184,172.67h-9.56V159.33h3.72v10.32H184Z" style="fill:#fff"/><path d="M48,141.83H46.39v2.92H48c1.12,0,1.63-.43,1.63-1.45S49.11,141.83,48,141.83Z" style="fill:#fff"/></svg>