<svg id="bf7e194e-63dd-4120-ab29-19e9e609c26f" data-name="Layer 1" xmlns="http://www.w3.org/2000/svg" viewBox="0 0 200 200"><title>aj_logo</title><path d="M127.74,141.83h-1.33v3.51h1.3c1.31,0,1.94-.45,1.94-1.75S129,141.83,127.74,141.83Z"/><path d="M33.72,141.76c-1.56,0-2.37,1.11-2.37,3.28s.81,3.23,2.37,3.23,2.4-1.17,2.4-3.23S35.3,141.76,33.72,141.76Z"/><path d="M140.48,142h-.12a14.65,14.65,0,0,1-.81,2.93l-.61,1.57h2.91l-.58-1.57A12.46,12.46,0,0,1,140.48,142Z"/><path d="M96.51,142h-.12a14.65,14.65,0,0,1-.81,2.93L95,146.49h2.91l-.58-1.57A12.46,12.46,0,0,1,96.51,142Z"/><path d="M72.89,70.09a188.41,188.41,0,0,1-7.65-27.28h-.67a252.64,252.64,0,0,1-8,27.12L51.43,84.74H78Z"/><path d="M48,141.83H46.39v2.92H48c1.12,0,1.63-.43,1.63-1.45S49.11,141.83,48,141.83Z"/><path d="M0,0V200H200V0ZM52.59,26H77.88l35.59,98H91.85l-8-22.63H45.78L38.12,124H17ZM17,139.29h8.2v2.59H20.14v2.47h4.33V147H20.14v3.75H17Zm5.73,31.14a2.28,2.28,0,0,0,2.38-1.66l2.6,1.59c-1,1.86-2.53,2.64-5.09,2.64-3.34,0-5.62-2-5.62-6s2.19-6,5.88-6c2.47,0,4,1,4.83,3l-2.79,1.43c-.33-1.1-.85-1.93-2.26-1.93s-2.42,1.1-2.42,3.45S21.14,170.43,22.73,170.43Zm13.85,2.28H33.37V161.29h3.21ZM33.72,151c-3.52,0-5.66-2.14-5.66-6s2.14-6,5.66-6,5.68,2.14,5.68,6S37.26,151,33.72,151Zm18.73,12.88H48.79v8.83H45.58v-8.83H42v-2.59H52.45Zm-2.29-13.17a2.86,2.86,0,0,1-.7-1.25l-.32-1.05c-.28-.86-.61-1.24-1.61-1.24H46.39v3.54H43.25V139.29h5c3.07,0,4.56,1.25,4.56,3.7a2.85,2.85,0,0,1-2.93,3v.07a2.35,2.35,0,0,1,2.28,1.57l.63,1.71a3.64,3.64,0,0,0,.79,1.37ZM63.68,169v3.68H60.44V169L56,161.29h3.66l1.57,3a6.59,6.59,0,0,1,.86,2.42h.09a6.71,6.71,0,0,1,.84-2.4l1.5-3h3.45ZM68,148.43a2.24,2.24,0,0,0,2.33-1.66l2.54,1.59c-1,1.86-2.47,2.64-5,2.64-3.26,0-5.5-2-5.5-6s2.15-6,5.75-6a4.54,4.54,0,0,1,4.73,3l-2.72,1.43c-.33-1.09-.84-1.93-2.22-1.93s-2.37,1.1-2.37,3.45S66.46,148.43,68,148.43Zm11.46,2.28H76.34V139.29h3.14v4.46h4.36v-4.46H87v11.42H83.84v-4.3H79.48Zm6.68,19.72a2.28,2.28,0,0,0,2.38-1.66l2.6,1.59c-1,1.86-2.53,2.64-5.09,2.64-3.34,0-5.62-2-5.62-6s2.19-6,5.88-6c2.47,0,4,1,4.83,3l-2.79,1.43c-.33-1.1-.85-1.93-2.26-1.93s-2.42,1.1-2.42,3.45S84.57,170.43,86.16,170.43Zm7.23-19.72H90.08l4.61-11.42h3.73l4.42,11.42h-3.4l-.72-1.94H94.11ZM101.65,173c-3.59,0-5.78-2.14-5.78-6s2.19-6,5.78-6,5.81,2.14,5.81,6S105.27,173,101.65,173Zm9.81-24.35-1.4-2.5a11.54,11.54,0,0,1-1-2.25h-.1a16.29,16.29,0,0,1,.12,2.11v4.7h-3.14V139.29h3.4l1.88,3.61a12.7,12.7,0,0,1,1,2.25h.09a13.76,13.76,0,0,1,1-2.25l1.89-3.61h3.37v11.42h-3.12V146a19.5,19.5,0,0,1,.1-2.11h-.1a12.15,12.15,0,0,1-1,2.25l-1.42,2.5Zm12.61,19.6c0,3.61-2.43,4.75-5.52,4.75s-5.52-1.14-5.52-4.75v-7h3.21v6.15c0,1.83.4,2.95,2.31,2.95s2.3-1.12,2.3-2.95v-6.15h3.22Zm2.34-20.36v2.82h-3.14V139.29h4.58c3.31,0,4.92,1.3,4.92,4.32,0,2.83-1.7,4.28-4.66,4.28Zm15.69,24.82h-2.95l-4.07-5.06a12.08,12.08,0,0,1-1.35-2.06h-.1a30.82,30.82,0,0,1,.14,3.2v3.92h-3.21V161.29H134l3.71,4.77a9.43,9.43,0,0,1,1.19,1.85H139s-.09-1.25-.09-3v-3.58h3.21Zm1.31-22-.72-1.94h-4.61l-.72,1.94h-3.31l4.61-11.42h3.73l4.42,11.42ZM115.13,107l15.14-13c4.32,10.32,9,15.31,17.46,15.31,10.32,0,13.14-6.32,13.14-17.64V26H181V95.55C181,118,165.86,126,147.9,126,131.93,126,121.29,119.18,115.13,107ZM153,139.29v11.42h-3.14V139.29Zm.87,31.14a2.29,2.29,0,0,0,2.38-1.66l2.59,1.59c-1,1.86-2.52,2.64-5.09,2.64-3.33,0-5.61-2-5.61-6s2.19-6,5.87-6c2.48,0,4,1,4.83,3l-2.78,1.43c-.33-1.1-.86-1.93-2.26-1.93s-2.43,1.1-2.43,3.45S152.31,170.43,153.9,170.43Zm8-19.43c-2.87,0-5-2.07-5-5.94s2.19-6.06,5.66-6.06a4.64,4.64,0,0,1,4.82,3l-2.72,1.45c-.38-1.38-1.15-1.93-2.17-1.93S160,142.16,160,145c0,2.09.84,3.51,2.49,3.51a1.84,1.84,0,0,0,2-1.71h-2v-2.16h4.77v6.08h-2l-.49-1.4A2.91,2.91,0,0,1,161.88,151Zm5.87,21.71h-3.21V161.29h3.21Zm15.25,0h-8.26V161.29H178v8.83h5Zm0-22h-2.89l-4-5.06a12.6,12.6,0,0,1-1.33-2.06h-.09a30.82,30.82,0,0,1,.14,3.2v3.92h-3.14V139.29h3.35l3.63,4.77a9.66,9.66,0,0,1,1.17,1.86H180s-.09-1.26-.09-3v-3.58H183Zm-81.35,13c-1.59,0-2.42,1.11-2.42,3.28s.83,3.23,2.42,3.23,2.45-1.17,2.45-3.23S103.27,163.76,101.65,163.76Z"/></svg>