<svg data-name="logo" xmlns="http://www.w3.org/2000/svg" viewBox="0 0 836 836"><path d="M88.9 402.77C80.51 419.56 66.9 427 46.75 427c-26.54 0-40.81-15.5-40.81-41.19C5.94 347 29.62 324 58 324c23.68 0 34.93 11.93 37.79 28.72l-23.85 7.9C70.76 350.37 67.07 344 56.32 344c-17 0-26.87 18.31-26.87 41 0 14.27 7.05 22.5 18.47 22.5 8.9 0 15.45-3.19 21.5-14.94zm82.1-2.18c-.67 3.69-.5 6.88 4.54 6.88a20.05 20.05 0 0 0 5-.67l-3.53 17a44.41 44.41 0 0 1-12.26 2c-14.45 0-19.82-7.56-17.47-21.5l4.7-26.87c1.18-7.56-.33-13.27-8.39-13.27-6.55 0-13.1 5.54-15.62 19.32l-7.22 41.48H97.92l19.65-112.19h23l-8.9 50.38c5-11.42 11.93-17.63 24.52-17.63 12.26 0 20 7.56 20 19.48a47 47 0 0 1-.51 6.89zm76-28.05c-11.25-5-26.2-2.35-28.89 13.6l-6.88 38.8h-22.86L202 347.35h20l-.72 20.65c5.21-15.29 18-25.2 31.07-21.84zm28.44 28.05c-.67 3.69-.5 6.88 4.54 6.88a20.05 20.05 0 0 0 5-.67l-3.53 17a44.41 44.41 0 0 1-12.26 2c-14.44 0-19.82-7.56-17.47-21.5l10.08-56.93h22.84zm1-90c8.06 0 14.11 4.53 14.11 13.1 0 8.23-6.05 12.76-14.11 12.76-7.39 0-13.6-4.53-13.6-12.76.01-8.59 6.22-13.12 13.61-13.12zm34.08 87.81c.67 8.74 5.88 13.27 13.27 13.27 5.71 0 9.91-1.85 9.91-7.22 0-4.7-2.35-7.39-11.42-9.91-13.94-3.86-20.28-11.25-20.28-23.34 0-18 14.27-25.7 32.08-25.7 19.31 0 29 8.06 29 21.67l-19.15 4.36c0-6.72-3.86-10.75-11.42-10.75-5.37 0-9.07 2.69-9.07 7.06 0 4 2.19 5.71 12.77 9.4 14.95 5 20.15 11.42 20.15 24.86 0 17.63-14.27 24.85-33.76 24.85-17.13 0-29.22-6.38-30.73-21.83zm106.07 23.85c-4.87 2.86-12.93 4.7-20.65 4.7-16.63 0-25.36-8.39-21.84-28.55l6-33.75h-11.04l3-17.3h11.25l2.86-16.46 23.17-2.69-3.19 19.15h20.15l-3 17.3h-20.14l-6.05 33.59c-1.17 6.71 1.68 8.9 6.38 8.9a27.43 27.43 0 0 0 13.1-3.87zM477 399.24l21.32 5c-4.7 15.79-15.62 22.67-36.1 22.67-21.5 0-33.93-13.1-33.93-33.59 0-30.9 20.16-47.86 42-47.86 22 0 31.74 13.6 31.74 28.05 0 6-1 12.09-3.36 16.46h-46.73c-1.85 10.91 2.69 19.65 12.09 19.65 6.89.04 10.97-2.82 12.97-10.38zm1.84-21.66a27.6 27.6 0 0 0 .34-4c0-6.22-2.52-11.42-9.91-11.42-7.89 0-12.76 7.22-14.78 15.45zm102.42 23.01c-.68 3.69-.51 6.88 4.53 6.88a20.05 20.05 0 0 0 5-.67l-3.53 17a44.41 44.41 0 0 1-12.26 2c-14.44 0-19.81-7.56-17.46-21.5l4.7-26.87c1.17-7.56-.34-13.27-8.4-13.27-6.55 0-13.1 5.54-15.62 19.32L531 424.94h-22.8l13.6-77.59h20v15.78c5-11.42 12.09-17.63 24.69-17.63 12.26 0 20 7.56 20 19.48a47 47 0 0 1-.5 6.89zm34.81-2.19c.67 8.74 5.88 13.27 13.26 13.27 5.71 0 9.91-1.85 9.91-7.22 0-4.7-2.35-7.39-11.42-9.91-13.94-3.86-20.32-11.25-20.32-23.34 0-18 14.28-25.7 32.08-25.7 19.31 0 29 8.06 29 21.67l-19.14 4.36c0-6.72-3.87-10.75-11.42-10.75-5.38 0-9.07 2.69-9.07 7.06 0 4 2.18 5.71 12.76 9.4 15 5 20.16 11.42 20.16 24.86 0 17.63-14.28 24.85-33.76 24.85-17.13 0-29.22-6.38-30.74-21.83zm106.07.84l21.33 5c-4.71 15.83-15.62 22.76-36.11 22.76-21.5 0-33.93-13.1-33.93-33.59 0-30.9 20.16-47.86 42-47.86 22 0 31.74 13.6 31.74 28.05 0 6-1 12.09-3.36 16.46h-46.7c-1.84 10.91 2.69 19.65 12.1 19.65 6.88-.05 10.91-2.91 12.93-10.47zm1.86-21.66a27.6 27.6 0 0 0 .34-4c0-6.22-2.52-11.42-9.91-11.42-7.89 0-12.76 7.22-14.78 15.45zm102.43 23.01c-.68 3.69-.51 6.88 4.53 6.88a20.05 20.05 0 0 0 5-.67l-3.53 17a44.41 44.41 0 0 1-12.26 2c-14.44 0-19.81-7.56-17.46-21.5l4.7-26.87c1.17-7.56-.34-13.27-8.4-13.27-6.55 0-13.1 5.54-15.62 19.32l-7.22 41.48h-22.8L767 347.35h20v15.78c5-11.42 12.09-17.63 24.69-17.63 12.26 0 20 7.56 20 19.48a47 47 0 0 1-.5 6.89zM14.77 482.55H9.7l1-5.14h4.93l.78-4.21c1.5-8.13 5.92-11 12-11a15.68 15.68 0 0 1 7.78 2l-2.43 5.36a8.34 8.34 0 0 0-5.21-1.93c-3.28 0-5 1.5-5.71 5.56l-.78 4.21h8.34l-.93 5.14h-8.35l-6.06 34.76c-1.22 6.56-4.14 8.13-9 8.13A9.9 9.9 0 0 1 0 523.65l1.43-4.92a5.86 5.86 0 0 0 3.85 1.64c1.86 0 2.85-.72 3.35-3.28zm45.58 8.28c0 10.91-6.07 20.4-17.2 20.4-7.63 0-13.06-4.92-13.06-14 0-10.92 6-20.62 17.27-20.62 8.21.02 12.99 5.44 12.99 14.22zm-23.76 5.92c0 6.21 2.78 9.49 7.28 9.49 6.2 0 9.84-7.21 9.84-15.13 0-5.85-2.57-9.2-7.13-9.2-6.21 0-9.99 6.99-9.99 14.84zm49.68-12.34A9.57 9.57 0 0 0 74.14 492l-3.21 18.41h-6.49l5.78-33h5.64l-.57 7.78c2.28-5.35 7.27-9.35 12.63-8.42zM141.28 501c-3.56 7.14-9.34 10.27-17.91 10.27-11.27 0-17.33-6.56-17.33-17.48 0-16.48 10.06-26.26 22.11-26.26 10.07 0 14.85 5.07 16.06 12.21l-10.13 3.35c-.5-4.35-2.07-7.06-6.64-7.06-7.21 0-11.42 7.77-11.42 17.41 0 6.06 3 9.56 7.85 9.56 3.79 0 6.57-1.36 9.14-6.35zm35.39-1c-.29 1.57-.21 2.93 1.93 2.93a8.22 8.22 0 0 0 2.14-.29l-1.5 7.21a18.91 18.91 0 0 1-5.21.85c-6.14 0-8.42-3.21-7.42-9.13l2-11.42c.5-3.21-.15-5.63-3.57-5.63-2.78 0-5.57 2.35-6.64 8.2l-3.06 17.63h-9.71l8.37-47.64h9.77L160 484.12c2.14-4.85 5.07-7.49 10.42-7.49s8.49 3.21 8.49 8.28a20.59 20.59 0 0 1-.21 2.92zm38.71 0c-.28 1.57-.14 2.93 2 2.93a8.13 8.13 0 0 0 2.07-.29l-1.5 7.21a18.5 18.5 0 0 1-5.21.85c-4.71 0-7.13-1.71-7.56-5.92-1.57 4.64-5.21 6.42-9.35 6.42-7.06 0-10.92-5.2-10.92-13.48 0-11.28 5.86-21.12 15.63-21.12 4.71 0 7.71 1.85 8.13 6.28l2-5.5h8.64zm-8.13-8.85c.64-3.71-.22-7.27-3.93-7.27-5.42 0-8.34 6.49-8.34 13.27 0 3.78 1.49 6.85 4.78 6.85 3.71 0 5.7-3.14 6.42-7.35zm35.06 19.23l3.49-20.2c.57-3.21-.14-5.63-3.21-5.63s-5.06 2.35-6.13 8.2l-3.07 17.63h-9.71l5.78-33H238v6.71c1.93-4.92 4.57-7.49 9.85-7.49s8.28 2.78 8.28 7.85c1.71-5.28 5-7.85 10.27-7.85s8.35 3.21 8.35 8.28a13.82 13.82 0 0 1-.28 2.92l-2 12.2c-.29 1.57-.14 2.93 2 2.93a8 8 0 0 0 2.06-.29l-1.53 7.24a18.5 18.5 0 0 1-5.21.85c-6.07 0-8.42-3.21-7.42-9.13l2-11.42c.58-3.21-.14-5.63-3.21-5.63s-5.13 2.35-6.13 8.2l-2.93 17.63zm45.16 14.48h-9.78l8.31-47.45h8.56v6.35c1.86-4.63 5.14-7.13 10.35-7.13 6.49 0 11.06 4.35 11.06 13.77 0 11.7-6.14 20.83-16.7 20.83-4.35 0-7.85-2-8.49-5.85zm4.85-28.11c-.71 4 .93 7.71 4.85 7.71 5.43 0 8.42-6.5 8.42-13.21 0-4.7-2.14-7.2-5.49-7.2s-6 2.78-7 8.28zm58.33 3.25c-.28 1.57-.14 2.93 2 2.93a8.13 8.13 0 0 0 2.07-.29l-1.5 7.21a18.44 18.44 0 0 1-5.21.85c-4.71 0-7.13-1.71-7.56-5.92-1.57 4.64-5.21 6.42-9.35 6.42-7.06 0-10.91-5.2-10.91-13.48 0-11.28 5.85-21.12 15.62-21.12 4.71 0 7.71 1.85 8.14 6.28l2-5.5h8.64zm-8.13-8.85c.64-3.71-.21-7.27-3.92-7.27-5.43 0-8.35 6.49-8.35 13.27 0 3.78 1.5 6.85 4.78 6.85 3.71 0 5.71-3.14 6.42-7.35zm27.36 8.85c-.29 1.57-.21 2.93 1.93 2.93a8.22 8.22 0 0 0 2.14-.29l-1.5 7.21a18.91 18.91 0 0 1-5.21.85c-6.14 0-8.42-3.21-7.42-9.13l4.28-24.19h9.7zm.43-38.24c3.42 0 6 1.92 6 5.56s-2.57 5.43-6 5.43c-3.14 0-5.78-1.93-5.78-5.43s2.64-5.53 5.78-5.53zm37.02 48.76c-1.71 10.2-7.78 14.91-18.84 14.91-7.63 0-13.05-2.49-15.05-8l7.28-5.06c.78 3.42 4.06 5.7 8 5.7 5.71 0 8.2-3.49 9.2-8.7l.93-4.92c-1.57 4.63-5.14 6.2-9.35 6.2-7.06 0-10.91-5.21-10.91-13.48 0-11.28 5.7-20.55 15.84-20.55 4.35 0 7.7 1.85 8.06 6.28l2.07-5.5h8.63zm-6.21-19.34c.64-3.71-.21-7.27-4.28-7.27-5.49 0-8.2 5.92-8.2 12.7 0 3.78 1.49 6.85 4.7 6.85 3.79 0 6.07-2.57 6.85-7.35zm45.6 8.82c-.29 1.57-.21 2.93 1.93 2.93a8.22 8.22 0 0 0 2.14-.29l-1.5 7.21a18.91 18.91 0 0 1-5.21.85c-6.14 0-8.42-3.21-7.42-9.13l2-11.42c.5-3.21-.15-5.63-3.57-5.63-2.78 0-5.57 2.35-6.64 8.2l-3.06 17.63h-9.71l5.78-33H430v6.71c2.14-4.85 5.14-7.49 10.49-7.49s8.49 3.21 8.49 8.28a20.59 20.59 0 0 1-.21 2.92zm61.43 1c-3.57 7.14-9.35 10.27-17.91 10.27-11.27 0-17.34-6.56-17.34-17.48 0-16.48 10.06-26.26 22.12-26.26 10.06 0 14.84 5.07 16.05 12.21l-10.13 3.35c-.5-4.35-2.07-7.06-6.63-7.06-7.21 0-11.42 7.77-11.42 17.41 0 6.06 3 9.56 7.85 9.56 3.78 0 6.56-1.36 9.13-6.35zm15.28-1c-.29 1.57-.22 2.93 1.92 2.93a8.12 8.12 0 0 0 2.14-.29l-1.49 7.24a18.91 18.91 0 0 1-5.21.85c-6.14 0-8.42-3.21-7.42-9.13l4.28-24.19h9.7zm.43-38.24c3.42 0 6 1.92 6 5.56s-2.57 5.43-6 5.43c-3.14 0-5.78-1.93-5.78-5.43s2.64-5.53 5.78-5.53zm27.92 47.48a18.8 18.8 0 0 1-8.78 2c-7.06 0-10.77-3.56-9.27-12.13l2.57-14.34h-4.71l1.28-7.35h4.78l1.22-7 9.84-1.14-1.35 8.13h8.56l-1.28 7.35h-8.57L543.5 499c-.5 2.86.72 3.79 2.71 3.79a11.64 11.64 0 0 0 5.57-1.65zM570.26 494a47.4 47.4 0 0 1 .07 9.7h.29a45 45 0 0 1 3.56-10l8.56-16.34h10.14l-20 36.18c-5.5 10.13-10.21 11.84-16.13 11.84a15 15 0 0 1-6.49-1.35l2.71-7.85a8 8 0 0 0 4.14 1.35c3 0 5.14-1.71 7.13-5.35l-5.42-34.82h10zm74.06 7c-3.57 7.14-9.35 10.27-17.91 10.27-11.28 0-17.34-6.56-17.34-17.48 0-16.48 10.06-26.26 22.12-26.26 10.06 0 14.84 5.07 16 12.21l-10.13 3.35c-.5-4.35-2.07-7.06-6.64-7.06-7.2 0-11.41 7.77-11.41 17.41 0 6.06 3 9.56 7.85 9.56 3.78 0 6.56-1.36 9.13-6.35zm37.73-9.82c0 10.56-6.06 20.05-18.26 20.05-8.5 0-14.85-4.71-14.85-14 0-10.92 6-20.62 18.41-20.62 9.06.02 14.7 5.3 14.7 14.57zM659.22 497c0 4.56 1.92 6.84 5.06 6.84 4.79 0 7.57-5.56 7.57-12.84 0-4.42-1.93-6.78-5.21-6.78-4.64.04-7.42 5.68-7.42 12.78zm36.72 14.23c-7 0-10.42-4.71-9.06-12.55l3.78-21.27h9.7l-3.78 21.69c-.5 3.36.79 5.07 3.5 5.07 3.14 0 6-2.14 6.85-7.71l3.42-19h9.71L716.13 500c-.28 1.6-.13 3 1.87 3a8.22 8.22 0 0 0 2.14-.29l-1.5 7.21a18.5 18.5 0 0 1-5.21.85c-4.78 0-6.85-2.21-6.56-6.7-2.08 5.02-5.44 7.16-10.93 7.16zM755.4 500c-.28 1.57-.21 2.93 1.93 2.93a8.22 8.22 0 0 0 2.14-.29l-1.5 7.21a18.91 18.91 0 0 1-5.21.85c-6.14 0-8.42-3.21-7.42-9.13l2-11.42c.5-3.21-.15-5.63-3.57-5.63-2.78 0-5.57 2.35-6.64 8.2l-3.06 17.63h-9.71l5.78-33h8.49v6.71c2.14-4.85 5.14-7.49 10.49-7.49s8.49 3.21 8.49 8.28a20.59 20.59 0 0 1-.21 2.92zm37.96.17c-2.06 7-6.92 11.06-15.34 11.06-8.77 0-14.55-5.06-14.55-14 0-10.7 5.92-20.62 18.55-20.62 8.85 0 12.63 5.49 12.63 12.13l-9.49 1.64c.14-2.78-.79-6.14-4.07-6.14-4.49 0-7.35 5.78-7.35 12.49 0 5 1.93 7.13 5 7.13 2.71 0 4.42-1.78 5.21-5.2zm14.78-.17c-.28 1.57-.21 2.93 1.93 2.93a8.17 8.17 0 0 0 2.14-.29l-1.5 7.21a18.84 18.84 0 0 1-5.2.85c-6.14 0-8.42-3.21-7.43-9.13l4.29-24.19h9.7zm.43-38.24c3.43 0 6 1.92 6 5.56s-2.57 5.43-6 5.43c-3.14 0-5.78-1.93-5.78-5.43s2.64-5.53 5.78-5.53zM827.28 500c-.29 1.57-.22 2.93 1.93 2.93a8.22 8.22 0 0 0 2.14-.29l-1.5 7.21a18.91 18.91 0 0 1-5.21.85c-6.14 0-8.42-3.21-7.42-9.13l6.92-38.89h9.7z" fill="#fff"/></svg>